<svg version="1.0" xmlns="http://www.w3.org/2000/svg"
 width="300.000000pt" height="300.000000pt" viewBox="0 0 300.000000 300.000000"
 preserveAspectRatio="xMidYMid meet">

<g transform="translate(0.000000,300.000000) scale(0.100000,-0.100000)"
fill="#000000" stroke="none">
<path d="M830 1993 c-14 -9 -28 -22 -32 -27 -7 -10 -12 -203 -5 -208 1 -1 252
-5 557 -8 l555 -5 -455 -128 c-250 -71 -473 -137 -496 -147 -101 -43 -158
-127 -158 -230 0 -101 50 -177 154 -231 l45 -24 574 -3 c613 -3 624 -2 642 45
5 13 9 67 9 119 l0 94 -566 2 -565 3 477 135 c524 148 556 161 611 243 83 124
31 286 -114 358 l-48 24 -580 3 c-535 2 -582 1 -605 -15z"/>
</g>
</svg>
