<?xml version="1.0" encoding="iso-8859-1"?>
<svg version="1.1" id="behance-icon" xmlns="http://www.w3.org/2000/svg" xmlns:xlink="http://www.w3.org/1999/xlink" x="0px" y="0px" viewBox="0 0 242.667 242.667" style="enable-background:new 0 0 242.667 242.667;" xml:space="preserve">
	<path d="M102.198,137.025v6.559c0,7.075-5.736,12.811-12.811,12.811H60.395v-31.015h30.157 C96.984,125.379,102.198,130.593,102.198,137.025z M97.417,99.819v-4.904c0-4.976-4.034-9.01-9.01-9.01H60.395v22.924h28.012 C93.383,108.829,97.417,104.795,97.417,99.819z M242.667,0v242.667H0V0H242.667z M144.962,85.537h43.274V73.768h-43.274V85.537z  M124.449,138.986c0-18.879-16.672-24.763-16.672-24.763s13.485-3.351,13.485-21.138c0-18.458-12.504-27.163-29.667-27.163 c-20.84,0-53.449,0-53.449,0v110.822h50.262c0,0,12.749,0,22.066-6.865C119.79,163.014,124.449,154.188,124.449,138.986z  M170.28,92.77c-39.13,0-41.436,33.222-41.436,44.991s6.865,38.248,37.697,38.248c28.709,0,34.264-13.608,35.98-18.389 c1.716-4.781,1.226-8.826,1.226-8.826h-18.143c0,0,1.471,9.93-17.101,9.93c-18.573,0-17.714-17.408-17.714-17.408h53.449 C204.238,141.316,209.935,92.77,170.28,92.77z M169.136,108.952c-16.427,0-17.653,16.059-17.653,16.059h33.467 C184.95,125.011,185.563,108.952,169.136,108.952z"/>
	<g>
	</g>
</svg>
