<svg id="Layer_1" enable-background="new 0 0 512 512" width="70" viewBox="0 0 512 512" xmlns="http://www.w3.org/2000/svg">
    <g>
        <path fill="white" d="m494.5 20.595h-314.679c-9.649 0-17.5 7.851-17.5 17.5v77.787h-144.821c-9.649 0-17.5 7.851-17.5 17.5v16.722c0 4.142 3.357 7.5 7.5 7.5s7.5-3.358 7.5-7.5v-16.722c0-1.378 1.121-2.5 2.5-2.5h314.68c1.379 0 2.5 1.122 2.5 2.5.011 21.995-.008 95.424 0 118.601 0 1.378-1.121 2.5-2.5 2.5h-230.553c-4.66 0-9.045 1.811-12.348 5.099l-34.143 33.995v-21.594c0-9.649-7.851-17.5-17.5-17.5h-20.136c-1.379 0-2.5-1.122-2.5-2.5v-61.917c0-4.142-3.357-7.5-7.5-7.5s-7.5 3.358-7.5 7.5v61.917c0 9.649 7.851 17.5 17.5 17.5h20.137c1.379 0 2.5 1.122 2.5 2.5v27.61c0 10.742 13.612 16.53 21.32 8.858l38.405-38.24c.473-.47 1.099-.729 1.765-.729h230.553c9.649 0 17.5-7.851 17.5-17.5v-77.787h60.693c.666 0 1.292.258 1.764.729l38.407 38.24c7.612 7.577 21.319 2.018 21.319-8.858v-27.61c0-1.378 1.121-2.5 2.5-2.5h20.137c9.649 0 17.5-7.851 17.5-17.5v-118.601c0-9.649-7.851-17.5-17.5-17.5zm2.5 136.1c0 1.378-1.121 2.5-2.5 2.5h-20.137c-9.649 0-17.5 7.851-17.5 17.5v21.594l-34.143-33.995c-3.302-3.288-7.688-5.099-12.348-5.099h-60.692v-25.814c0-9.649-7.851-17.5-17.5-17.5h-154.859v-77.786c0-1.378 1.121-2.5 2.5-2.5h314.679c1.379 0 2.5 1.122 2.5 2.5z"/>
        <path fill="white" d="m438.66 70.244h-203c-4.143 0-7.5 3.358-7.5 7.5s3.357 7.5 7.5 7.5h203c9.849-.279 9.968-14.681 0-15z"/>
        <path fill="white" d="m126.095 187.763c-9.992 0-10.008 15 0 15 9.992 0 10.008-15 0-15z"/>
        <path fill="white" d="m175.095 187.763c-9.992 0-10.008 15 0 15 9.992 0 10.008-15 0-15z"/>
        <path fill="white" d="m224.095 187.763c-9.992 0-10.008 15 0 15 9.992 0 10.008-15 0-15z"/>
        <!-- <path fill="white" d="m451.878 295.341h-63.989c-9.908.319-9.923 14.682 0 15h63.989c1.379 0 2.5 1.122 2.5 2.5v118.601c0 1.378-1.121 2.5-2.5 2.5h-20.137c-9.649 0-17.5 7.851-17.5 17.5v21.594l-34.143-33.995c-3.303-3.288-7.688-5.099-12.348-5.099h-230.551c-1.379 0-2.5-1.122-2.5-2.5v-118.601c0-1.378 1.121-2.5 2.5-2.5h210.796c9.869-.262 9.941-14.704 0-15h-210.796c-9.649 0-17.5 7.851-17.5 17.5v118.601c0 9.649 7.851 17.5 17.5 17.5h230.552c.666 0 1.292.259 1.764.729l38.406 38.24c7.612 7.578 21.32 2.019 21.32-8.858v-27.61c0-1.378 1.121-2.5 2.5-2.5h20.137c9.649 0 17.5-7.851 17.5-17.5v-118.602c0-9.649-7.851-17.5-17.5-17.5z"/>
        <path fill="white" d="m403.538 357.626c0-4.142-3.357-7.5-7.5-7.5h-203c-4.143 0-7.5 3.358-7.5 7.5s3.357 7.5 7.5 7.5h203c4.143 0 7.5-3.358 7.5-7.5z"/>
        <path fill="white" d="m193.038 383.852c-9.875.289-9.945 14.686 0 15h128.661c4.143 0 7.5-3.358 7.5-7.5s-3.357-7.5-7.5-7.5z"/> -->
    </g>
</svg>