<?xml version="1.0" encoding="utf-8"?>
<svg version="1.1" id="Layer_1" xmlns="http://www.w3.org/2000/svg" xmlns:xlink="http://www.w3.org/1999/xlink" x="0px" y="0px" viewBox="0 0 512 130" style="enable-background:new 0 0 512 136;" xml:space="preserve">
<g>
	<path d="M385.4,75c8.4-19.7,16.4-38.4,24.4-57c2-4.6,4.1-9.2,5.8-14c1-2.6,2.5-3.4,5.3-3.3c6.5,0.2,13,0.1,20.3,0.1c-7.2,14.9-3.7,29.9-4,44.5c-0.5,29.4-0.2,58.9-0.2,88.7c-8.2,0-17,0-26,0c0-20.7,0-41.4,0-62.8c-0.7,1.2-1.3,1.9-1.7,2.8c-6,14.1-12.1,28.1-17.8,42.3c-1.4,3.5-3.1,5-7.2,4.8c-3.9-0.2-6.7-0.2-8.4-4.5c-6-15-12.6-29.8-19.6-44.6c0,20.6,0,41.2,0,62.1c-8.6,0-17.2,0-26.4,0c0.1-2.5,0.4-5,0.4-7.5c0.1-37.8,0.3-75.6,0.1-113.4c0-3.9-2.5-7.7-4.1-12.3c8.8,0,17.4-0.1,25.9,0.2c1,0,2.3,2.2,2.9,3.6c9.3,21.6,18.4,43.3,27.6,65C383.5,71.1,384.3,72.6,385.4,75z"/>
	<path d="M145.2,134c-8.5,0-16.6,0-24,0c0-15.2,0.1-30.2-0.1-45.2c0-4.7-0.4-9.4-1.1-14c-0.6-4.2-2.9-7.4-7.8-8.1c-5.5-0.8-10.2,1-13.8,4.8c-1,1-0.7,3.2-0.8,4.8c0,19.1,0,38.2,0,57.7c-7.5,0-15.3,0-23.4,0c0-29.3,0-58.7,0-88.4c7.3,0,14.8,0,22.4,0c0.2,1.9,0.3,3.5,0.5,5.8c12.8-8.8,25.3-9,37.5,1.4c7.2-4.9,15.3-7.8,24.4-7.9c12.2-0.1,21.4,4.9,26.2,15.2c3.2,7,5.5,14.8,5.9,22.3c0.9,17.1,0.3,34.2,0.3,51.6c-7.5,0-15.6,0-23.1,0c0-15.6,0.2-30.9-0.1-46.2c-0.1-4.6-0.7-9.5-2.2-13.8c-2.7-7.7-15.4-10.5-21.8-5.1c-0.9,0.7-0.8,2.7-0.8,4C143.8,93.2,144.5,113.4,145.2,134z"/>
	<path d="M69.3,1.1c0,7.5,0,14.4,0,21.7c-14.2,0-28.2,0-42.7,0c0,10.2,0,20.2,0,30.7c11,0,22.1,0,33.6,0c0,7.2,0,14.2,0,21.3c-11.2,0-22.3,0-33.6,0c0,12.5,0,24.8,0,37.4c14.9,0,29.6,0,44.7,0c0,7.1,0,14.2,0,21.8c-23.7,0-47.5,0-71.2,0C0,89.6,0,45.5,0,1.1C23,1.1,46,1.1,69.3,1.1z"/>
	<path d="M240.5,78.4c1.1-8.7-3.1-14.1-12-14c-6.3,0.1-12.6,1.7-18.9,2.8c-1.7,0.3-3.3,1-5.2,1.6c0-7,0-13.4,0-20.2c13.2-3.7,26.4-5.7,39.9-2.5C256,49,262.2,56.8,263,70.8c0.7,12.6,0.5,25.2,0.6,37.7c0.1,8.3,0,16.7,0,25.4c-6.9,0-13.9,0-21.2,0c-0.2-2.1-0.3-4-0.5-5.5c-5.1,2.3-9.8,5.4-15.1,6.6c-19,4.4-35-10.4-32.9-29.9c1.9-17.7,17.5-29.4,37.1-27.9C234.2,77.5,237.2,78,240.5,78.4z M241.7,101.6c-0.8-1.6-1.1-4-2.4-4.8c-4.6-2.8-14.5-1.6-18.8,1.8c-3.6,2.8-4.6,6.6-3.3,10.7c1.3,4,4.8,5.9,9.2,6.1C234.9,115.7,240.9,110.1,241.7,101.6z"/>
	<path d="M465.2,97c-0.2,11.6,7.5,19.2,19.8,18.7c6.9-0.3,13.6-2.5,21-3.9c0,5.3,0.1,11.6-0.1,17.9c0,0.8-1,2-1.8,2.3c-18.6,6.9-42.8,6.2-55.9-12.8c-11.3-16.3-11.2-44.1,0.4-60.2c8.7-12.1,21.1-15.8,35.7-13.5c15.2,2.4,23.5,12,26.3,25.6c1.5,7.3,1,15.1,1.3,22.6c0.2,3.3-2.3,3-4.6,3c-13.2,0-26.3,0-39.5,0C467,96.7,466.1,96.9,465.2,97z M490.3,78.2c-0.1-5.4-0.8-10.2-5.8-13.2c-4.4-2.6-9.2-2.6-13.6,0c-5,2.9-6,7.8-6.1,13.2C473.3,78.2,481.6,78.2,490.3,78.2z"/>
	<path d="M299.8,0.9c8,0,15.4,0,23.2,0c0,44.3,0,88.4,0,132.9c-7.6,0-15.3,0-23.2,0C299.8,89.6,299.8,45.5,299.8,0.9z"/>
	<path d="M291.9,134.1c-1.6,0.1-2.9,0.2-4.1,0.2c-6.2,0-12.5,0-19,0c0-29.7,0-59,0-88.6c7.7,0,15.3,0,23.2,0C291.9,75.1,291.9,104.4,291.9,134.1z"/>
	<path d="M280.4,29.7c-8.2,0.1-14.9-6.5-14.9-14.7c0-8.2,6.6-14.9,14.8-14.9c8,0,14.8,6.9,14.7,15C294.9,23,288.3,29.6,280.4,29.7z"/>
</g>
</svg>
